{"title":"Rick.and.Morty.S02.720p.BluRay.X264-REWARD [&amp;]","uid":14842318,"size":5187874732,"categoryP":"video","categoryS":"hd___tv_shows","magnet":"?xt=urn:btih:1bafc479a81d8877153634b28bb275e51097ffc5&amp;dn=Rick.and.Morty.S02.720p.BluRay.X264-REWARD+%5B%26amp%3B%5D&amp;tr=udp%3A%2F%2Ftracker.leechers-paradise.org%3A6969&amp;tr=udp%3A%2F%2Fzer0day.ch%3A1337&amp;tr=udp%3A%2F%2Fopen.demonii.com%3A1337&amp;tr=udp%3A%2F%2Ftracker.coppersurfer.tk%3A6969&amp;tr=udp%3A%2F%2Fexodus.desync.com%3A6969","seeders":7,"leechers":7,"uploader":"GoodFilms","files":32,"time":1465386469,"description":"AWESOME ANIMATED COMEDY\r\n  \nhttp://www.imdb.com/title/tt2861424/\r\n\r\nVideo\r\nID                                       : 1\r\nFormat                                   : AVC\r\nFormat/Info                              : Advanced Video Codec\r\nFormat profile                           :   \r\nFormat settings, CABAC                   : Yes\r\nFormat settings, ReFrames                : 5 frames\r\nCodec ID                                 : V_MPEG4/ISO/AVC\r\nDuration                                 : 22mn 51s\r\nBit rate                                 : 2 368 Kbps\r\nWidth                                    : 1 280 pixels\r\nHeight                                   : 720 pixels\r\nDisplay aspect ratio                     : 16:9\r\nFrame rate mode                          : Constant\r\nFrame rate                               : 23.976 (24000/1001) fps\r\nColor space                              : YUV\r\nChroma subsampling                       : 4:2:0\r\nBit depth                                : 8 bits\r\nScan type                                : Progressive\r\nBits/(Pixel*Frame)                       : 0.107\r\nStream size                              : 379 MiB (77%)\r\nWriting library                          : x264 core 148 r2692 64f4e24\r\nDefault                                  : Yes\r\nForced                                   : No\r\nStatistics Tags Issue                    : no_variable_data 1970-01-01 00:00:00 / no_variable_data 2010-02-22 21:41:29\r\nFromStats_BitRate                        : 2372677\r\nFromStats_Duration                       : 00:22:51.579000000\r\nFromStats_FrameCount                     : 32885\r\nFromStats_StreamSize                     : 406789385\r\n\r\nAudio\r\nID                                       : 2\r\nFormat                                   : AC-3\r\nFormat/Info                              : Audio Coding 3\r\nMode extension                           : CM (complete main)\r\nFormat settings, Endianness              : Big\r\nCodec ID                                 : A_AC3\r\nDuration                                 : 22mn 51s\r\nBit rate mode                            : Constant\r\nBit rate                                 : 640 Kbps\r\nChannel(s)                               : 6 channels\r\nChannel positions                        : Front: L C R, Side: L R, LFE\r\nSampling rate                            : 48.0 KHz\r\nFrame rate                               : 31.250 fps (1536 spf)\r\nCompression mode                         : Lossy\r\nStream size                              : 105 MiB (21%)\r\nLanguage                                 : English\r\nDefault                                  : Yes\r\nForced                                   : No\r\nStatistics Tags Issue                    : no_variable_data 1970-01-01 00:00:00 / no_variable_data 2010-02-22 21:41:29\r\nFromStats_BitRate                        : 640000\r\nFromStats_Duration                       : 00:22:51.648000000\r\nFromStats_FrameCount                     : 42864\r\nFromStats_StreamSize                     : 109731840\r\n\r\nText #1\r\nID                                       : 3\r\nFormat                                   : UTF-8\r\nCodec ID                                 : S_TEXT/UTF8\r\nCodec ID/Info                            : UTF-8 Plain Text\r\nLanguage                                 : English\r\nDefault                                  : No\r\nForced                                   : No\r\nStatistics Tags Issue                    : no_variable_data 1970-01-01 00:00:00 / no_variable_data 2010-02-22 21:41:29\r\nFromStats_BitRate                        : 132\r\nFromStats_Duration                       : 00:22:33.935000000\r\nFromStats_FrameCount                     : 637\r\nFromStats_StreamSize                     : 22442\r\n\r\nText #2\r\nID                                       : 4\r\nFormat                                   : UTF-8\r\nCodec ID                                 : S_TEXT/UTF8\r\nCodec ID/Info                            : UTF-8 Plain Text\r\nTitle                                    : SDH\r\nLanguage                                 : English\r\nDefault                                  : No\r\nForced                                   : No\r\nStatistics Tags Issue                    : no_variable_data 1970-01-01 00:00:00 / no_variable_data 2010-02-22 21:41:29\r\nFromStats_BitRate                        : 139\r\nFromStats_Duration                       : 00:22:37.146000000\r\nFromStats_FrameCount                     : 669\r\nFromStats_StreamSize                     : 23680\r\n\r\nMenu\r\n00:00:00.000                             : en:00:00:00.000\r\n00:02:29.358                             : en:00:02:29.358\r\n00:03:01.181                             : en:00:03:01.181\r\n00:11:13.506                             : en:00:11:13.506\r\n00:21:31.957                             : en:00:21:31.957\r\n00:22:02.905                             : en:00:22:02.905","torrent":{"xt":"urn:btih:1bafc479a81d8877153634b28bb275e51097ffc5","amp;dn":"Rick.and.Morty.S02.720p.BluRay.X264-REWARD+%5B%26amp%3B%5D","amp;tr":["udp%3A%2F%2Ftracker.leechers-paradise.org%3A6969","udp%3A%2F%2Fzer0day.ch%3A1337","udp%3A%2F%2Fopen.demonii.com%3A1337","udp%3A%2F%2Ftracker.coppersurfer.tk%3A6969","udp%3A%2F%2Fexodus.desync.com%3A6969"],"infoHash":"1bafc479a81d8877153634b28bb275e51097ffc5","infoHashBuffer":{"type":"Buffer","data":[27,175,196,121,168,29,136,119,21,54,52,178,139,178,117,229,16,151,255,197]},"announce":[],"urlList":[]}}